<svg id="gradient_glow" xmlns="http://www.w3.org/2000/svg" xmlns:xlink="http://www.w3.org/1999/xlink" width="2560" height="2167" viewBox="0 0 2560 2167">
  <defs>
    <radialGradient id="radial-gradient" cx="0.5" cy="0.5" r="0.498" gradientTransform="translate(-0.003) scale(1.007 1)" gradientUnits="objectBoundingBox">
      <stop offset="0" stop-color="aqua"/>
      <stop offset="0.07" stop-color="#1de2ff" stop-opacity="0.89"/>
      <stop offset="0.21" stop-color="#58a7fe" stop-opacity="0.651"/>
      <stop offset="0.36" stop-color="#8b74fd" stop-opacity="0.451"/>
      <stop offset="0.5" stop-color="#b54afd" stop-opacity="0.29"/>
      <stop offset="0.64" stop-color="#d52afc" stop-opacity="0.161"/>
      <stop offset="0.77" stop-color="#ec13fc" stop-opacity="0.071"/>
      <stop offset="0.89" stop-color="#fa05fc" stop-opacity="0.02"/>
      <stop offset="1" stop-color="#ff00fc" stop-opacity="0"/>
    </radialGradient>
  </defs>
  <rect id="Rechteck_10" data-name="Rechteck 10" width="2560" height="2167" fill="none"/>
  <g id="Gradient_Purple_Blue" data-name="Gradient Purple Blue">
    <path id="Pfad_1363" data-name="Pfad 1363" d="M1714,773.3a17.474,17.474,0,0,1-.18,1.76l-.09.93c-.08.73-.16,1.45-.23,2.18-.24,2.14-.49,4.28-.74,6.4-.19,1.57-.37,3.14-.58,4.71-.14,1.15-.29,2.29-.45,3.44s-.28,2.09-.42,3.13c-.09.65-.17,1.3-.27,1.95a5.477,5.477,0,0,1-.15,1c-.06.32-.09.72-.15,1.08h0c-.72,5-1.5,10-2.35,14.94-.13.75-.25,1.52-.38,2.28-.06.26-.1.52-.14.78-.14.77-.28,1.54-.41,2.31q-.69,3.9-1.45,7.78c-.12.64-.24,1.28-.36,1.9-.08.38-.14.75-.22,1.12l-.21,1.07c-.59,3-1.22,6-1.85,9a618,618,0,0,1-68.19,178h0q-12.24,21.37-26.11,41.62h0c-.62.93-1.25,1.86-1.9,2.78q-.3.45-.63.9a3.032,3.032,0,0,1-.22.32c-.82,1.18-1.64,2.37-2.49,3.55-.16.24-.33.49-.51.73s-.34.5-.53.75l-.43.62c-.18.26-.38.53-.57.79l-.19.27-.11.15-.07.09c-.15.23-.32.47-.49.68q-3.62,5.06-7.33,10-1.29,1.73-2.59,3.43a624.931,624.931,0,0,1-163,150,618.18,618.18,0,0,1-216.58,85.68A625.359,625.359,0,0,1,1095,1332.33c-193.14,0-365.72-88-479.85-226.08a621.268,621.268,0,0,1-125.63-252.2h0q-1.87-7.93-3.55-15.95a1.97,1.97,0,0,0-.07-.35c-.27-1.29-.54-2.56-.79-3.84-.2-1-.38-1.92-.58-2.9h0c-.06-.25-.1-.52-.15-.78-.23-1.16-.45-2.33-.67-3.5-.2-1-.39-2-.57-3.05-.11-.58-.22-1.15-.32-1.74-.08-.41-.16-.83-.22-1.24l-.23-1.25q-1.54-8.74-2.85-17.57c-.22-1.45-.43-2.9-.63-4.36s-.45-3.18-.65-4.79c-.16-1.14-.3-2.28-.45-3.42V631c38.3-302.16,293.3-536.67,604.32-543,3.39-.06,6.78-.11,10.17-.12h5.36c3.39,0,6.78.06,10.17.12a624.171,624.171,0,0,1,77.37,6.37h0a4.665,4.665,0,0,1,.81.12h0C1460.74,134.81,1677.1,354.61,1712.18,631V772.78l1.22.35.25.07Z" fill="url(#radial-gradient)"/>
  </g>
</svg>
