<svg xmlns="http://www.w3.org/2000/svg" xmlns:xlink="http://www.w3.org/1999/xlink" width="2560" height="3478" viewBox="0 0 2560 3478">
  <defs>
    <clipPath id="clip-path">
      <rect id="Rechteck_89" data-name="Rechteck 89" width="2560" height="3478" transform="translate(0 11248)" fill="#fff" stroke="#707070" stroke-width="1"/>
    </clipPath>
    <radialGradient id="radial-gradient" cx="0.5" cy="0.5" r="0.498" gradientTransform="translate(-0.003) scale(1.007 1)" gradientUnits="objectBoundingBox">
      <stop offset="0" stop-color="aqua"/>
      <stop offset="0.07" stop-color="#1de2ff" stop-opacity="0.89"/>
      <stop offset="0.21" stop-color="#58a7fe" stop-opacity="0.651"/>
      <stop offset="0.36" stop-color="#8b74fd" stop-opacity="0.451"/>
      <stop offset="0.5" stop-color="#b54afd" stop-opacity="0.29"/>
      <stop offset="0.64" stop-color="#d52afc" stop-opacity="0.161"/>
      <stop offset="0.77" stop-color="#ec13fc" stop-opacity="0.071"/>
      <stop offset="0.89" stop-color="#fa05fc" stop-opacity="0.02"/>
      <stop offset="1" stop-color="#ff00fc" stop-opacity="0"/>
    </radialGradient>
  </defs>
  <g id="Gruppe_maskieren_20" data-name="Gruppe maskieren 20" transform="translate(0 -11248)" clip-path="url(#clip-path)">
    <g id="_gradient_glow" transform="translate(-144.449 12115.545)">
      <g id="Gradient_Purple_Blue" data-name="Gradient Purple Blue" transform="translate(0 0)">
        <path id="Pfad_1363" data-name="Pfad 1363" d="M3088.477,1525.733a36.524,36.524,0,0,1-.38,3.692l-.19,1.951c-.168,1.531-.338,3.042-.486,4.573-.507,4.489-1.035,8.979-1.562,13.426-.4,3.293-.782,6.587-1.225,9.88-.3,2.413-.613,4.8-.95,7.216s-.591,4.384-.887,6.566c-.19,1.364-.359,2.727-.57,4.091a11.423,11.423,0,0,1-.317,2.1c-.127.672-.19,1.51-.317,2.266h0c-1.521,10.489-3.168,20.977-4.963,31.34-.275,1.574-.528,3.189-.8,4.783-.126.545-.211,1.091-.3,1.636-.3,1.615-.591,3.23-.866,4.846q-1.457,8.182-3.062,16.321c-.253,1.343-.507,2.685-.76,3.986-.169.8-.3,1.573-.465,2.349l-.443,2.245c-1.246,6.293-2.576,12.587-3.907,18.88a1291.186,1291.186,0,0,1-144.007,373.4h0q-25.849,44.83-55.14,87.31h0c-1.31,1.951-2.64,3.9-4.013,5.832q-.634.944-1.331,1.888a6.378,6.378,0,0,1-.464.671c-1.732,2.475-3.464,4.971-5.259,7.447-.338.5-.7,1.028-1.077,1.531s-.718,1.049-1.119,1.573l-.908,1.3c-.38.545-.8,1.112-1.2,1.657l-.4.566-.232.315-.148.189a17.568,17.568,0,0,1-1.035,1.426q-7.645,10.615-15.479,20.978-2.725,3.629-5.47,7.2a1316.193,1316.193,0,0,1-1047.5,517.289c-407.882,0-772.345-184.6-1013.37-474.264a1299.931,1299.931,0,0,1-265.311-529.057h0q-3.949-16.636-7.5-33.459a4.1,4.1,0,0,0-.148-.734c-.57-2.706-1.14-5.37-1.668-8.056-.422-2.1-.8-4.028-1.225-6.083h0c-.127-.525-.211-1.091-.317-1.637-.486-2.433-.95-4.888-1.415-7.342-.422-2.1-.824-4.2-1.2-6.4-.232-1.217-.465-2.413-.676-3.65-.169-.86-.338-1.741-.465-2.6l-.486-2.623q-3.252-18.334-6.019-36.858c-.465-3.042-.908-6.083-1.33-9.146s-.95-6.671-1.373-10.048c-.338-2.391-.634-4.783-.95-7.174v-332.1c80.884-633.862,619.4-1125.81,1276.232-1139.089,7.159-.126,14.318-.231,21.478-.252h11.319c7.159,0,14.318.126,21.478.252a1326.806,1326.806,0,0,1,163.393,13.363h0a9.921,9.921,0,0,1,1.711.252h0C2553.63,186.328,3010.549,647.418,3084.633,1227.22v297.422l2.577.734.528.147Z" transform="translate(-477.79 -87.88)" fill="url(#radial-gradient)"/>
      </g>
    </g>
  </g>
</svg>
