<svg xmlns="http://www.w3.org/2000/svg" xmlns:xlink="http://www.w3.org/1999/xlink" width="2560" height="2212" viewBox="0 0 2560 2212"><defs><clipPath id="a"><rect width="2560" height="2212" transform="translate(0 14661)" fill="#fff" stroke="#707070" stroke-width="1"/></clipPath><clipPath id="b"><rect width="2560" height="2167" fill="none"/></clipPath></defs><g transform="translate(0 -14661)" clip-path="url(#a)"><g transform="translate(17 14661)" style="isolation:isolate"><g clip-path="url(#b)"><circle cx="5.24" cy="5.24" r="5.24" transform="translate(343.78 1247.14)" fill="#fff"/><circle cx="5.24" cy="5.24" r="5.24" transform="translate(552.49 1440.14)" fill="#fff"/><circle cx="6.36" cy="6.36" r="6.36" transform="translate(31.09 1110.25)" fill="#fff"/><circle cx="1.87" cy="1.87" r="1.87" transform="translate(-3.32 1276.32)" fill="#fff"/><circle cx="3.74" cy="3.74" r="3.74" transform="translate(122.36 1345.89)" fill="#fff"/><circle cx="3.74" cy="3.74" r="3.74" transform="translate(215.12 958.39)" fill="#fff"/><circle cx="1.5" cy="1.5" r="1.5" transform="translate(248.03 1422.19)" fill="#fff"/><circle cx="2.99" cy="2.99" r="2.99" transform="translate(507.61 1025.72)" fill="#fff"/><circle cx="1.87" cy="1.87" r="1.87" transform="translate(244.29 1122.97)" fill="#fff"/><circle cx="2.24" cy="2.24" r="2.24" transform="translate(431.31 1372.08)" fill="#fff"/><circle cx="5.24" cy="5.24" r="5.24" transform="translate(1315.52 654.67)" fill="#fff"/><circle cx="1.87" cy="1.87" r="1.87" transform="translate(759.71 490.85)" fill="#fff"/><circle cx="3.74" cy="3.74" r="3.74" transform="translate(978.15 172.92)" fill="#fff"/><circle cx="2.99" cy="2.99" r="2.99" transform="translate(1270.64 240.25)" fill="#fff"/><circle cx="1.87" cy="1.87" r="1.87" transform="translate(1007.32 337.49)" fill="#fff"/><circle cx="3.74" cy="3.74" r="3.74" transform="translate(122.36 633.73)" fill="#fff"/><circle cx="2.99" cy="2.99" r="2.99" transform="translate(56.53 926.23)" fill="#fff"/><circle cx="5.24" cy="5.24" r="5.24" transform="translate(1409.78 944.17)" fill="#fff"/><circle cx="6.36" cy="6.36" r="6.36" transform="translate(1544.43 631.48)" fill="#fff"/><circle cx="1.87" cy="1.87" r="1.87" transform="translate(1387.34 597.07)" fill="#fff"/><circle cx="3.74" cy="3.74" r="3.74" transform="translate(1314.03 722.75)" fill="#fff"/><circle cx="3.74" cy="3.74" r="3.74" transform="translate(1701.53 815.51)" fill="#fff"/><circle cx="2.99" cy="2.99" r="2.99" transform="translate(1635.7 1108.01)" fill="#fff"/><circle cx="1.87" cy="1.87" r="1.87" transform="translate(1540.69 844.68)" fill="#fff"/><circle cx="5.24" cy="5.24" r="5.24" transform="translate(499.38 508.8)" fill="#fff"/><circle cx="5.24" cy="5.24" r="5.24" transform="translate(306.38 717.51)" fill="#fff"/><circle cx="6.36" cy="6.36" r="6.36" transform="translate(634.03 196.11)" fill="#fff"/><circle cx="1.87" cy="1.87" r="1.87" transform="translate(476.94 161.7)" fill="#fff"/><circle cx="3.74" cy="3.74" r="3.74" transform="translate(403.63 287.37)" fill="#fff"/><circle cx="3.74" cy="3.74" r="3.74" transform="translate(791.13 380.13)" fill="#fff"/><circle cx="1.5" cy="1.5" r="1.5" transform="translate(331.81 413.05)" fill="#fff"/><circle cx="2.99" cy="2.99" r="2.99" transform="translate(725.3 672.63)" fill="#fff"/><circle cx="1.87" cy="1.87" r="1.87" transform="translate(630.3 409.31)" fill="#fff"/><circle cx="2.24" cy="2.24" r="2.24" transform="translate(380.44 596.33)" fill="#fff"/><circle cx="5.24" cy="5.24" r="5.24" transform="translate(733.53 994.29)" fill="#fff"/><circle cx="5.24" cy="5.24" r="5.24" transform="translate(524.81 801.29)" fill="#fff"/><circle cx="3.74" cy="3.74" r="3.74" transform="translate(865.19 1286.05)" fill="#fff"/><circle cx="2.99" cy="2.99" r="2.99" transform="translate(574.19 1220.22)" fill="#fff"/><circle cx="1.87" cy="1.87" r="1.87" transform="translate(839.75 1125.21)" fill="#fff"/><circle cx="2.24" cy="2.24" r="2.24" transform="translate(651.99 875.36)" fill="#fff"/><circle cx="3.74" cy="3.74" r="3.74" transform="translate(834.52 111.58)" fill="#fff"/><circle cx="2.99" cy="2.99" r="2.99" transform="translate(543.52 45.75)" fill="#fff"/><circle cx="5.24" cy="5.24" r="5.24" transform="translate(1646.92 139.25)" fill="#fff"/><circle cx="3.74" cy="3.74" r="3.74" transform="translate(1216.78 45)" fill="#fff"/><circle cx="1.5" cy="1.5" r="1.5" transform="translate(1342.45 121.3)" fill="#fff"/><circle cx="2.24" cy="2.24" r="2.24" transform="translate(1525.74 71.19)" fill="#fff"/><circle cx="6.36" cy="6.36" r="6.36" transform="translate(236.81 126.54)" fill="#fff"/><circle cx="3.74" cy="3.74" r="3.74" transform="translate(58.02 283.63)" fill="#fff"/><circle cx="1.87" cy="1.87" r="1.87" transform="translate(32.59 122.8)" fill="#fff"/><circle cx="5.24" cy="5.24" r="5.24" transform="translate(1323.75 1428.92)" fill="#fff"/><circle cx="5.24" cy="5.24" r="5.24" transform="translate(1115.04 1235.92)" fill="#fff"/><circle cx="1.87" cy="1.87" r="1.87" transform="translate(1677.59 1406.48)" fill="#fff"/><circle cx="3.74" cy="3.74" r="3.74" transform="translate(1548.17 1333.17)" fill="#fff"/><circle cx="1.5" cy="1.5" r="1.5" transform="translate(1426.98 1261.35)" fill="#fff"/><circle cx="2.24" cy="2.24" r="2.24" transform="translate(1242.22 1309.99)" fill="#fff"/><circle cx="5.24" cy="5.24" r="5.24" transform="translate(767.19 1392.27)" fill="#fff"/><circle cx="3.74" cy="3.74" r="3.74" transform="translate(1200.32 1489.52)" fill="#fff"/><circle cx="1.5" cy="1.5" r="1.5" transform="translate(1079.13 1417.7)" fill="#fff"/><circle cx="2.24" cy="2.24" r="2.24" transform="translate(894.37 1466.33)" fill="#fff"/><circle cx="5.24" cy="5.24" r="5.24" transform="translate(329.69 2162.67)" fill="#fff"/><circle cx="1.87" cy="1.87" r="1.87" transform="translate(892.24 1998.85)" fill="#fff"/><circle cx="3.74" cy="3.74" r="3.74" transform="translate(670.06 1680.92)" fill="#fff"/><circle cx="2.99" cy="2.99" r="2.99" transform="translate(379.07 1748.25)" fill="#fff"/><circle cx="1.87" cy="1.87" r="1.87" transform="translate(644.63 1845.49)" fill="#fff"/><circle cx="3.74" cy="3.74" r="3.74" transform="translate(1525.85 2141.73)" fill="#fff"/><circle cx="6.36" cy="6.36" r="6.36" transform="translate(98.54 2139.48)" fill="#fff"/><circle cx="1.87" cy="1.87" r="1.87" transform="translate(264.61 2105.07)" fill="#fff"/><circle cx="5.24" cy="5.24" r="5.24" transform="translate(1145.83 2016.8)" fill="#fff"/><circle cx="6.36" cy="6.36" r="6.36" transform="translate(1008.94 1704.11)" fill="#fff"/><circle cx="1.87" cy="1.87" r="1.87" transform="translate(1175.01 1669.7)" fill="#fff"/><circle cx="3.74" cy="3.74" r="3.74" transform="translate(1244.58 1795.37)" fill="#fff"/><circle cx="3.74" cy="3.74" r="3.74" transform="translate(857.08 1888.13)" fill="#fff"/><circle cx="1.5" cy="1.5" r="1.5" transform="translate(1320.88 1921.05)" fill="#fff"/><circle cx="1.87" cy="1.87" r="1.87" transform="translate(1021.66 1917.31)" fill="#fff"/><circle cx="2.24" cy="2.24" r="2.24" transform="translate(1270.77 2104.33)" fill="#fff"/><circle cx="3.74" cy="3.74" r="3.74" transform="translate(813.69 1619.58)" fill="#fff"/><circle cx="2.99" cy="2.99" r="2.99" transform="translate(1106.19 1553.75)" fill="#fff"/><circle cx="5.24" cy="5.24" r="5.24" transform="translate(-1.71 1647.25)" fill="#fff"/><circle cx="3.74" cy="3.74" r="3.74" transform="translate(431.43 1553)" fill="#fff"/><circle cx="1.5" cy="1.5" r="1.5" transform="translate(310.24 1629.3)" fill="#fff"/><circle cx="2.24" cy="2.24" r="2.24" transform="translate(125.47 1579.19)" fill="#fff"/><circle cx="6.36" cy="6.36" r="6.36" transform="translate(1406.16 1634.54)" fill="#fff"/><circle cx="3.74" cy="3.74" r="3.74" transform="translate(1590.19 1791.63)" fill="#fff"/><circle cx="1.87" cy="1.87" r="1.87" transform="translate(1619.36 1630.8)" fill="#fff"/></g><g transform="translate(-54 28)" clip-path="url(#b)"><circle cx="5.24" cy="5.24" r="5.24" transform="translate(2205.74 1247.14)" fill="#fff"/><circle cx="5.24" cy="5.24" r="5.24" transform="translate(1997.03 1440.14)" fill="#fff"/><circle cx="6.36" cy="6.36" r="6.36" transform="translate(2516.19 1110.25)" fill="#fff"/><circle cx="1.87" cy="1.87" r="1.87" transform="translate(2559.58 1276.32)" fill="#fff"/><circle cx="3.74" cy="3.74" r="3.74" transform="translate(2430.16 1345.89)" fill="#fff"/><circle cx="3.74" cy="3.74" r="3.74" transform="translate(2337.4 958.39)" fill="#fff"/><circle cx="1.5" cy="1.5" r="1.5" transform="translate(2308.97 1422.19)" fill="#fff"/><circle cx="2.99" cy="2.99" r="2.99" transform="translate(2046.41 1025.72)" fill="#fff"/><circle cx="1.87" cy="1.87" r="1.87" transform="translate(2311.97 1122.97)" fill="#fff"/><circle cx="2.24" cy="2.24" r="2.24" transform="translate(2124.21 1372.08)" fill="#fff"/><circle cx="5.24" cy="5.24" r="5.24" transform="translate(1234 654.67)" fill="#fff"/><circle cx="1.87" cy="1.87" r="1.87" transform="translate(1796.55 490.85)" fill="#fff"/><circle cx="3.74" cy="3.74" r="3.74" transform="translate(1574.37 172.92)" fill="#fff"/><circle cx="2.99" cy="2.99" r="2.99" transform="translate(1283.38 240.25)" fill="#fff"/><circle cx="1.87" cy="1.87" r="1.87" transform="translate(1548.94 337.49)" fill="#fff"/><circle cx="3.74" cy="3.74" r="3.74" transform="translate(2430.16 633.73)" fill="#fff"/><circle cx="2.99" cy="2.99" r="2.99" transform="translate(2497.49 926.23)" fill="#fff"/><circle cx="5.24" cy="5.24" r="5.24" transform="translate(1139.74 944.17)" fill="#fff"/><circle cx="6.36" cy="6.36" r="6.36" transform="translate(1002.85 631.48)" fill="#fff"/><circle cx="1.87" cy="1.87" r="1.87" transform="translate(1168.92 597.07)" fill="#fff"/><circle cx="3.74" cy="3.74" r="3.74" transform="translate(1238.49 722.75)" fill="#fff"/><circle cx="3.74" cy="3.74" r="3.74" transform="translate(850.99 815.51)" fill="#fff"/><circle cx="2.99" cy="2.99" r="2.99" transform="translate(918.32 1108.01)" fill="#fff"/><circle cx="1.87" cy="1.87" r="1.87" transform="translate(1015.57 844.68)" fill="#fff"/><circle cx="5.24" cy="5.24" r="5.24" transform="translate(2050.14 508.8)" fill="#fff"/><circle cx="5.24" cy="5.24" r="5.24" transform="translate(2243.14 717.51)" fill="#fff"/><circle cx="6.36" cy="6.36" r="6.36" transform="translate(1913.25 196.11)" fill="#fff"/><circle cx="1.87" cy="1.87" r="1.87" transform="translate(2079.32 161.7)" fill="#fff"/><circle cx="3.74" cy="3.74" r="3.74" transform="translate(2148.89 287.37)" fill="#fff"/><circle cx="3.74" cy="3.74" r="3.74" transform="translate(1761.39 380.13)" fill="#fff"/><circle cx="1.5" cy="1.5" r="1.5" transform="translate(2225.19 413.05)" fill="#fff"/><circle cx="2.99" cy="2.99" r="2.99" transform="translate(1828.72 672.63)" fill="#fff"/><circle cx="1.87" cy="1.87" r="1.87" transform="translate(1925.96 409.31)" fill="#fff"/><circle cx="2.24" cy="2.24" r="2.24" transform="translate(2175.08 596.33)" fill="#fff"/><circle cx="5.24" cy="5.24" r="5.24" transform="translate(1815.99 994.29)" fill="#fff"/><circle cx="5.24" cy="5.24" r="5.24" transform="translate(2024.71 801.29)" fill="#fff"/><circle cx="3.74" cy="3.74" r="3.74" transform="translate(1687.33 1286.05)" fill="#fff"/><circle cx="2.99" cy="2.99" r="2.99" transform="translate(1979.83 1220.22)" fill="#fff"/><circle cx="1.87" cy="1.87" r="1.87" transform="translate(1716.51 1125.21)" fill="#fff"/><circle cx="2.24" cy="2.24" r="2.24" transform="translate(1903.53 875.36)" fill="#fff"/><circle cx="3.74" cy="3.74" r="3.74" transform="translate(1718 111.58)" fill="#fff"/><circle cx="2.99" cy="2.99" r="2.99" transform="translate(2010.5 45.75)" fill="#fff"/><circle cx="5.24" cy="5.24" r="5.24" transform="translate(902.6 139.25)" fill="#fff"/><circle cx="3.74" cy="3.74" r="3.74" transform="translate(1335.74 45)" fill="#fff"/><circle cx="1.5" cy="1.5" r="1.5" transform="translate(1214.55 121.3)" fill="#fff"/><circle cx="2.24" cy="2.24" r="2.24" transform="translate(1029.78 71.19)" fill="#fff"/><circle cx="6.36" cy="6.36" r="6.36" transform="translate(2310.47 126.54)" fill="#fff"/><circle cx="3.74" cy="3.74" r="3.74" transform="translate(2494.5 283.63)" fill="#fff"/><circle cx="1.87" cy="1.87" r="1.87" transform="translate(2523.67 122.8)" fill="#fff"/><circle cx="5.24" cy="5.24" r="5.24" transform="translate(1225.77 1428.92)" fill="#fff"/><circle cx="5.24" cy="5.24" r="5.24" transform="translate(1434.48 1235.92)" fill="#fff"/><circle cx="1.87" cy="1.87" r="1.87" transform="translate(878.67 1406.48)" fill="#fff"/><circle cx="3.74" cy="3.74" r="3.74" transform="translate(1004.35 1333.17)" fill="#fff"/><circle cx="1.5" cy="1.5" r="1.5" transform="translate(1130.02 1261.35)" fill="#fff"/><circle cx="2.24" cy="2.24" r="2.24" transform="translate(1313.3 1309.99)" fill="#fff"/><circle cx="5.24" cy="5.24" r="5.24" transform="translate(1782.33 1392.27)" fill="#fff"/><circle cx="3.74" cy="3.74" r="3.74" transform="translate(1352.2 1489.52)" fill="#fff"/><circle cx="1.5" cy="1.5" r="1.5" transform="translate(1477.87 1417.7)" fill="#fff"/><circle cx="2.24" cy="2.24" r="2.24" transform="translate(1661.15 1466.33)" fill="#fff"/><circle cx="5.24" cy="5.24" r="5.24" transform="translate(2219.83 2162.67)" fill="#fff"/><circle cx="1.87" cy="1.87" r="1.87" transform="translate(1664.02 1998.85)" fill="#fff"/><circle cx="3.74" cy="3.74" r="3.74" transform="translate(1882.46 1680.92)" fill="#fff"/><circle cx="2.99" cy="2.99" r="2.99" transform="translate(2174.95 1748.25)" fill="#fff"/><circle cx="1.87" cy="1.87" r="1.87" transform="translate(1911.63 1845.49)" fill="#fff"/><circle cx="3.74" cy="3.74" r="3.74" transform="translate(1026.67 2141.73)" fill="#fff"/><circle cx="6.36" cy="6.36" r="6.36" transform="translate(2448.74 2139.48)" fill="#fff"/><circle cx="1.87" cy="1.87" r="1.87" transform="translate(2291.65 2105.07)" fill="#fff"/><circle cx="5.24" cy="5.24" r="5.24" transform="translate(1403.69 2016.8)" fill="#fff"/><circle cx="6.36" cy="6.36" r="6.36" transform="translate(1538.34 1704.11)" fill="#fff"/><circle cx="1.87" cy="1.87" r="1.87" transform="translate(1381.25 1669.7)" fill="#fff"/><circle cx="3.74" cy="3.74" r="3.74" transform="translate(1307.94 1795.37)" fill="#fff"/><circle cx="3.74" cy="3.74" r="3.74" transform="translate(1695.44 1888.13)" fill="#fff"/><circle cx="1.5" cy="1.5" r="1.5" transform="translate(1236.12 1921.05)" fill="#fff"/><circle cx="1.87" cy="1.87" r="1.87" transform="translate(1534.6 1917.31)" fill="#fff"/><circle cx="2.24" cy="2.24" r="2.24" transform="translate(1284.75 2104.33)" fill="#fff"/><circle cx="3.74" cy="3.74" r="3.74" transform="translate(1738.83 1619.58)" fill="#fff"/><circle cx="2.99" cy="2.99" r="2.99" transform="translate(1447.83 1553.75)" fill="#fff"/><circle cx="5.24" cy="5.24" r="5.24" transform="translate(2551.23 1647.25)" fill="#fff"/><circle cx="3.74" cy="3.74" r="3.74" transform="translate(2121.09 1553)" fill="#fff"/><circle cx="1.5" cy="1.5" r="1.5" transform="translate(2246.76 1629.3)" fill="#fff"/><circle cx="2.24" cy="2.24" r="2.24" transform="translate(2430.05 1579.19)" fill="#fff"/><circle cx="6.36" cy="6.36" r="6.36" transform="translate(1141.12 1634.54)" fill="#fff"/><circle cx="3.74" cy="3.74" r="3.74" transform="translate(962.33 1791.63)" fill="#fff"/><circle cx="1.87" cy="1.87" r="1.87" transform="translate(936.9 1630.8)" fill="#fff"/></g></g></g></svg>