<svg xmlns="http://www.w3.org/2000/svg" xmlns:xlink="http://www.w3.org/1999/xlink" width="2560" height="1937" viewBox="0 0 2560 1937">
  <defs>
    <clipPath id="clip-path">
      <rect id="_gradient_space" width="2560" height="1937" transform="translate(0 124)" fill="none"/>
    </clipPath>
  </defs>
  <g id="_stars" transform="translate(0 -124)" opacity="0.999" style="isolation: isolate">
    <g id="Gruppe_2" data-name="Gruppe 2" clip-path="url(#clip-path)">
      <g id="Gruppe_82" data-name="Gruppe 82">
        <circle id="Ellipse_1" data-name="Ellipse 1" cx="5.24" cy="5.24" r="5.24" transform="translate(343.78 1247.14)" fill="#fff"/>
        <circle id="Ellipse_2" data-name="Ellipse 2" cx="5.24" cy="5.24" r="5.24" transform="translate(552.49 1440.14)" fill="#fff"/>
        <circle id="Ellipse_3" data-name="Ellipse 3" cx="6.36" cy="6.36" r="6.36" transform="translate(31.09 1110.25)" fill="#fff"/>
        <circle id="Ellipse_4" data-name="Ellipse 4" cx="1.87" cy="1.87" r="1.87" transform="translate(-3.32 1276.32)" fill="#fff"/>
        <circle id="Ellipse_5" data-name="Ellipse 5" cx="3.74" cy="3.74" r="3.74" transform="translate(122.36 1345.89)" fill="#fff"/>
        <circle id="Ellipse_6" data-name="Ellipse 6" cx="3.74" cy="3.74" r="3.74" transform="translate(215.12 958.39)" fill="#fff"/>
        <circle id="Ellipse_7" data-name="Ellipse 7" cx="1.5" cy="1.5" r="1.5" transform="translate(248.03 1422.19)" fill="#fff"/>
        <circle id="Ellipse_8" data-name="Ellipse 8" cx="2.99" cy="2.99" r="2.99" transform="translate(507.61 1025.72)" fill="#fff"/>
        <circle id="Ellipse_9" data-name="Ellipse 9" cx="1.87" cy="1.87" r="1.87" transform="translate(244.29 1122.97)" fill="#fff"/>
        <circle id="Ellipse_10" data-name="Ellipse 10" cx="2.24" cy="2.24" r="2.24" transform="translate(431.31 1372.08)" fill="#fff"/>
        <circle id="Ellipse_11" data-name="Ellipse 11" cx="5.24" cy="5.24" r="5.24" transform="translate(1315.52 654.67)" fill="#fff"/>
        <circle id="Ellipse_12" data-name="Ellipse 12" cx="1.87" cy="1.87" r="1.87" transform="translate(759.71 490.85)" fill="#fff"/>
        <circle id="Ellipse_13" data-name="Ellipse 13" cx="3.74" cy="3.74" r="3.74" transform="translate(978.15 172.92)" fill="#fff"/>
        <circle id="Ellipse_14" data-name="Ellipse 14" cx="2.99" cy="2.99" r="2.99" transform="translate(1270.64 240.25)" fill="#fff"/>
        <circle id="Ellipse_15" data-name="Ellipse 15" cx="1.87" cy="1.87" r="1.87" transform="translate(1007.32 337.49)" fill="#fff"/>
        <circle id="Ellipse_16" data-name="Ellipse 16" cx="3.74" cy="3.74" r="3.74" transform="translate(122.36 633.73)" fill="#fff"/>
        <circle id="Ellipse_17" data-name="Ellipse 17" cx="2.99" cy="2.99" r="2.99" transform="translate(56.53 926.23)" fill="#fff"/>
        <circle id="Ellipse_18" data-name="Ellipse 18" cx="5.24" cy="5.24" r="5.24" transform="translate(1409.78 944.17)" fill="#fff"/>
        <circle id="Ellipse_19" data-name="Ellipse 19" cx="6.36" cy="6.36" r="6.36" transform="translate(1544.43 631.48)" fill="#fff"/>
        <circle id="Ellipse_20" data-name="Ellipse 20" cx="1.87" cy="1.87" r="1.87" transform="translate(1387.34 597.07)" fill="#fff"/>
        <circle id="Ellipse_21" data-name="Ellipse 21" cx="3.74" cy="3.74" r="3.74" transform="translate(1314.03 722.75)" fill="#fff"/>
        <circle id="Ellipse_22" data-name="Ellipse 22" cx="3.74" cy="3.74" r="3.74" transform="translate(1701.53 815.51)" fill="#fff"/>
        <circle id="Ellipse_23" data-name="Ellipse 23" cx="2.99" cy="2.99" r="2.99" transform="translate(1635.7 1108.01)" fill="#fff"/>
        <circle id="Ellipse_24" data-name="Ellipse 24" cx="1.87" cy="1.87" r="1.87" transform="translate(1540.69 844.68)" fill="#fff"/>
        <circle id="Ellipse_25" data-name="Ellipse 25" cx="5.24" cy="5.24" r="5.24" transform="translate(499.38 508.8)" fill="#fff"/>
        <circle id="Ellipse_26" data-name="Ellipse 26" cx="5.24" cy="5.24" r="5.24" transform="translate(306.38 717.51)" fill="#fff"/>
        <circle id="Ellipse_27" data-name="Ellipse 27" cx="6.36" cy="6.36" r="6.36" transform="translate(634.03 196.11)" fill="#fff"/>
        <circle id="Ellipse_28" data-name="Ellipse 28" cx="1.87" cy="1.87" r="1.87" transform="translate(476.94 161.7)" fill="#fff"/>
        <circle id="Ellipse_29" data-name="Ellipse 29" cx="3.74" cy="3.74" r="3.74" transform="translate(403.63 287.37)" fill="#fff"/>
        <circle id="Ellipse_30" data-name="Ellipse 30" cx="3.74" cy="3.74" r="3.74" transform="translate(791.13 380.13)" fill="#fff"/>
        <circle id="Ellipse_31" data-name="Ellipse 31" cx="1.5" cy="1.5" r="1.5" transform="translate(331.81 413.05)" fill="#fff"/>
        <circle id="Ellipse_32" data-name="Ellipse 32" cx="2.99" cy="2.99" r="2.99" transform="translate(725.3 672.63)" fill="#fff"/>
        <circle id="Ellipse_33" data-name="Ellipse 33" cx="1.87" cy="1.87" r="1.87" transform="translate(630.3 409.31)" fill="#fff"/>
        <circle id="Ellipse_34" data-name="Ellipse 34" cx="2.24" cy="2.24" r="2.24" transform="translate(380.44 596.33)" fill="#fff"/>
        <circle id="Ellipse_35" data-name="Ellipse 35" cx="5.24" cy="5.24" r="5.24" transform="translate(733.53 994.29)" fill="#fff"/>
        <circle id="Ellipse_36" data-name="Ellipse 36" cx="5.24" cy="5.24" r="5.24" transform="translate(524.81 801.29)" fill="#fff"/>
        <circle id="Ellipse_37" data-name="Ellipse 37" cx="3.74" cy="3.74" r="3.74" transform="translate(865.19 1286.05)" fill="#fff"/>
        <circle id="Ellipse_38" data-name="Ellipse 38" cx="2.99" cy="2.99" r="2.99" transform="translate(574.19 1220.22)" fill="#fff"/>
        <circle id="Ellipse_39" data-name="Ellipse 39" cx="1.87" cy="1.87" r="1.87" transform="translate(839.75 1125.21)" fill="#fff"/>
        <circle id="Ellipse_40" data-name="Ellipse 40" cx="2.24" cy="2.24" r="2.24" transform="translate(651.99 875.36)" fill="#fff"/>
        <circle id="Ellipse_41" data-name="Ellipse 41" cx="3.74" cy="3.74" r="3.74" transform="translate(834.52 111.58)" fill="#fff"/>
        <circle id="Ellipse_42" data-name="Ellipse 42" cx="2.99" cy="2.99" r="2.99" transform="translate(543.52 45.75)" fill="#fff"/>
        <circle id="Ellipse_43" data-name="Ellipse 43" cx="5.24" cy="5.24" r="5.24" transform="translate(1646.92 139.25)" fill="#fff"/>
        <circle id="Ellipse_44" data-name="Ellipse 44" cx="3.74" cy="3.74" r="3.74" transform="translate(1216.78 45)" fill="#fff"/>
        <circle id="Ellipse_45" data-name="Ellipse 45" cx="1.5" cy="1.5" r="1.5" transform="translate(1342.45 121.3)" fill="#fff"/>
        <circle id="Ellipse_46" data-name="Ellipse 46" cx="2.24" cy="2.24" r="2.24" transform="translate(1525.74 71.19)" fill="#fff"/>
        <circle id="Ellipse_47" data-name="Ellipse 47" cx="6.36" cy="6.36" r="6.36" transform="translate(236.81 126.54)" fill="#fff"/>
        <circle id="Ellipse_48" data-name="Ellipse 48" cx="3.74" cy="3.74" r="3.74" transform="translate(58.02 283.63)" fill="#fff"/>
        <circle id="Ellipse_49" data-name="Ellipse 49" cx="1.87" cy="1.87" r="1.87" transform="translate(32.59 122.8)" fill="#fff"/>
        <circle id="Ellipse_50" data-name="Ellipse 50" cx="5.24" cy="5.24" r="5.24" transform="translate(1323.75 1428.92)" fill="#fff"/>
        <circle id="Ellipse_51" data-name="Ellipse 51" cx="5.24" cy="5.24" r="5.24" transform="translate(1115.04 1235.92)" fill="#fff"/>
        <circle id="Ellipse_52" data-name="Ellipse 52" cx="1.87" cy="1.87" r="1.87" transform="translate(1677.59 1406.48)" fill="#fff"/>
        <circle id="Ellipse_53" data-name="Ellipse 53" cx="3.74" cy="3.74" r="3.74" transform="translate(1548.17 1333.17)" fill="#fff"/>
        <circle id="Ellipse_54" data-name="Ellipse 54" cx="1.5" cy="1.5" r="1.5" transform="translate(1426.98 1261.35)" fill="#fff"/>
        <circle id="Ellipse_55" data-name="Ellipse 55" cx="2.24" cy="2.24" r="2.24" transform="translate(1242.22 1309.99)" fill="#fff"/>
        <circle id="Ellipse_56" data-name="Ellipse 56" cx="5.24" cy="5.24" r="5.24" transform="translate(767.19 1392.27)" fill="#fff"/>
        <circle id="Ellipse_57" data-name="Ellipse 57" cx="3.74" cy="3.74" r="3.74" transform="translate(1200.32 1489.52)" fill="#fff"/>
        <circle id="Ellipse_58" data-name="Ellipse 58" cx="1.5" cy="1.5" r="1.5" transform="translate(1079.13 1417.7)" fill="#fff"/>
        <circle id="Ellipse_59" data-name="Ellipse 59" cx="2.24" cy="2.24" r="2.24" transform="translate(894.37 1466.33)" fill="#fff"/>
        <circle id="Ellipse_60" data-name="Ellipse 60" cx="5.24" cy="5.24" r="5.24" transform="translate(329.69 2162.67)" fill="#fff"/>
        <circle id="Ellipse_61" data-name="Ellipse 61" cx="1.87" cy="1.87" r="1.87" transform="translate(892.24 1998.85)" fill="#fff"/>
        <circle id="Ellipse_62" data-name="Ellipse 62" cx="3.74" cy="3.74" r="3.74" transform="translate(670.06 1680.92)" fill="#fff"/>
        <circle id="Ellipse_63" data-name="Ellipse 63" cx="2.99" cy="2.99" r="2.99" transform="translate(379.07 1748.25)" fill="#fff"/>
        <circle id="Ellipse_64" data-name="Ellipse 64" cx="1.87" cy="1.87" r="1.87" transform="translate(644.63 1845.49)" fill="#fff"/>
        <circle id="Ellipse_65" data-name="Ellipse 65" cx="3.74" cy="3.74" r="3.74" transform="translate(1525.85 2141.73)" fill="#fff"/>
        <circle id="Ellipse_66" data-name="Ellipse 66" cx="6.36" cy="6.36" r="6.36" transform="translate(98.54 2139.48)" fill="#fff"/>
        <circle id="Ellipse_67" data-name="Ellipse 67" cx="1.87" cy="1.87" r="1.87" transform="translate(264.61 2105.07)" fill="#fff"/>
        <circle id="Ellipse_68" data-name="Ellipse 68" cx="5.24" cy="5.24" r="5.24" transform="translate(1145.83 2016.8)" fill="#fff"/>
        <circle id="Ellipse_69" data-name="Ellipse 69" cx="6.36" cy="6.36" r="6.36" transform="translate(1008.94 1704.11)" fill="#fff"/>
        <circle id="Ellipse_70" data-name="Ellipse 70" cx="1.87" cy="1.87" r="1.87" transform="translate(1175.01 1669.7)" fill="#fff"/>
        <circle id="Ellipse_71" data-name="Ellipse 71" cx="3.74" cy="3.74" r="3.74" transform="translate(1244.58 1795.37)" fill="#fff"/>
        <circle id="Ellipse_72" data-name="Ellipse 72" cx="3.74" cy="3.74" r="3.74" transform="translate(857.08 1888.13)" fill="#fff"/>
        <circle id="Ellipse_73" data-name="Ellipse 73" cx="1.5" cy="1.5" r="1.5" transform="translate(1320.88 1921.05)" fill="#fff"/>
        <circle id="Ellipse_74" data-name="Ellipse 74" cx="1.87" cy="1.87" r="1.87" transform="translate(1021.66 1917.31)" fill="#fff"/>
        <circle id="Ellipse_75" data-name="Ellipse 75" cx="2.24" cy="2.24" r="2.24" transform="translate(1270.77 2104.33)" fill="#fff"/>
        <circle id="Ellipse_76" data-name="Ellipse 76" cx="3.74" cy="3.74" r="3.74" transform="translate(813.69 1619.58)" fill="#fff"/>
        <circle id="Ellipse_77" data-name="Ellipse 77" cx="2.99" cy="2.99" r="2.99" transform="translate(1106.19 1553.75)" fill="#fff"/>
        <circle id="Ellipse_78" data-name="Ellipse 78" cx="5.24" cy="5.24" r="5.24" transform="translate(-1.71 1647.25)" fill="#fff"/>
        <circle id="Ellipse_79" data-name="Ellipse 79" cx="3.74" cy="3.74" r="3.74" transform="translate(431.43 1553)" fill="#fff"/>
        <circle id="Ellipse_80" data-name="Ellipse 80" cx="1.5" cy="1.5" r="1.5" transform="translate(310.24 1629.3)" fill="#fff"/>
        <circle id="Ellipse_81" data-name="Ellipse 81" cx="2.24" cy="2.24" r="2.24" transform="translate(125.47 1579.19)" fill="#fff"/>
        <circle id="Ellipse_82" data-name="Ellipse 82" cx="6.36" cy="6.36" r="6.36" transform="translate(1406.16 1634.54)" fill="#fff"/>
        <circle id="Ellipse_83" data-name="Ellipse 83" cx="3.74" cy="3.74" r="3.74" transform="translate(1590.19 1791.63)" fill="#fff"/>
        <circle id="Ellipse_84" data-name="Ellipse 84" cx="1.87" cy="1.87" r="1.87" transform="translate(1619.36 1630.8)" fill="#fff"/>
      </g>
      <g id="Gruppe_83" data-name="Gruppe 83" transform="translate(1460.68 217)">
        <ellipse id="Ellipse_1-2" data-name="Ellipse 1" cx="5.24" cy="5.24" rx="5.24" ry="5.24" transform="translate(1354.75 1202.14)" fill="#fff"/>
        <ellipse id="Ellipse_2-2" data-name="Ellipse 2" cx="5.24" cy="5.24" rx="5.24" ry="5.24" transform="translate(1146.04 1395.14)" fill="#fff"/>
        <ellipse id="Ellipse_3-2" data-name="Ellipse 3" cx="6.36" cy="6.36" rx="6.36" ry="6.36" transform="translate(1665.2 1065.25)" fill="#fff"/>
        <ellipse id="Ellipse_4-2" data-name="Ellipse 4" cx="1.87" cy="1.87" rx="1.87" ry="1.87" transform="translate(1708.59 1231.32)" fill="#fff"/>
        <ellipse id="Ellipse_5-2" data-name="Ellipse 5" cx="3.74" cy="3.74" rx="3.74" ry="3.74" transform="translate(1579.17 1300.89)" fill="#fff"/>
        <ellipse id="Ellipse_6-2" data-name="Ellipse 6" cx="3.74" cy="3.74" rx="3.74" ry="3.74" transform="translate(1486.41 913.39)" fill="#fff"/>
        <ellipse id="Ellipse_7-2" data-name="Ellipse 7" cx="1.5" cy="1.5" rx="1.5" ry="1.5" transform="translate(1457.98 1377.19)" fill="#fff"/>
        <ellipse id="Ellipse_8-2" data-name="Ellipse 8" cx="2.99" cy="2.99" rx="2.99" ry="2.99" transform="translate(1195.42 980.72)" fill="#fff"/>
        <ellipse id="Ellipse_9-2" data-name="Ellipse 9" cx="1.87" cy="1.87" rx="1.87" ry="1.87" transform="translate(1460.98 1077.97)" fill="#fff"/>
        <ellipse id="Ellipse_10-2" data-name="Ellipse 10" cx="2.24" cy="2.24" rx="2.24" ry="2.24" transform="translate(1273.22 1327.08)" fill="#fff"/>
        <ellipse id="Ellipse_11-2" data-name="Ellipse 11" cx="5.24" cy="5.24" rx="5.24" ry="5.24" transform="translate(383.01 609.67)" fill="#fff"/>
        <ellipse id="Ellipse_12-2" data-name="Ellipse 12" cx="1.87" cy="1.87" rx="1.87" ry="1.87" transform="translate(945.56 445.85)" fill="#fff"/>
        <ellipse id="Ellipse_13-2" data-name="Ellipse 13" cx="3.74" cy="3.74" rx="3.74" ry="3.74" transform="translate(723.38 127.92)" fill="#fff"/>
        <ellipse id="Ellipse_14-2" data-name="Ellipse 14" cx="2.99" cy="2.99" rx="2.99" ry="2.99" transform="translate(432.39 195.25)" fill="#fff"/>
        <ellipse id="Ellipse_15-2" data-name="Ellipse 15" cx="1.87" cy="1.87" rx="1.87" ry="1.87" transform="translate(697.95 292.49)" fill="#fff"/>
        <ellipse id="Ellipse_16-2" data-name="Ellipse 16" cx="3.74" cy="3.74" rx="3.74" ry="3.74" transform="translate(1579.17 588.73)" fill="#fff"/>
        <ellipse id="Ellipse_17-2" data-name="Ellipse 17" cx="2.99" cy="2.99" rx="2.99" ry="2.99" transform="translate(1646.5 881.23)" fill="#fff"/>
        <ellipse id="Ellipse_18-2" data-name="Ellipse 18" cx="5.24" cy="5.24" rx="5.24" ry="5.24" transform="translate(288.75 899.17)" fill="#fff"/>
        <ellipse id="Ellipse_19-2" data-name="Ellipse 19" cx="6.36" cy="6.36" rx="6.36" ry="6.36" transform="translate(151.86 586.48)" fill="#fff"/>
        <ellipse id="Ellipse_20-2" data-name="Ellipse 20" cx="1.87" cy="1.87" rx="1.87" ry="1.87" transform="translate(317.93 552.07)" fill="#fff"/>
        <ellipse id="Ellipse_21-2" data-name="Ellipse 21" cx="3.74" cy="3.74" rx="3.74" ry="3.74" transform="translate(387.5 677.75)" fill="#fff"/>
        <ellipse id="Ellipse_22-2" data-name="Ellipse 22" cx="3.74" cy="3.74" rx="3.74" ry="3.74" transform="translate(0 770.51)" fill="#fff"/>
        <ellipse id="Ellipse_23-2" data-name="Ellipse 23" cx="2.99" cy="2.99" rx="2.99" ry="2.99" transform="translate(67.33 1063.01)" fill="#fff"/>
        <ellipse id="Ellipse_24-2" data-name="Ellipse 24" cx="1.87" cy="1.87" rx="1.87" ry="1.87" transform="translate(164.58 799.68)" fill="#fff"/>
        <ellipse id="Ellipse_25-2" data-name="Ellipse 25" cx="5.24" cy="5.24" rx="5.24" ry="5.24" transform="translate(1199.15 463.8)" fill="#fff"/>
        <ellipse id="Ellipse_26-2" data-name="Ellipse 26" cx="5.24" cy="5.24" rx="5.24" ry="5.24" transform="translate(1392.15 672.51)" fill="#fff"/>
        <ellipse id="Ellipse_27-2" data-name="Ellipse 27" cx="6.36" cy="6.36" rx="6.36" ry="6.36" transform="translate(1062.26 151.11)" fill="#fff"/>
        <ellipse id="Ellipse_28-2" data-name="Ellipse 28" cx="1.87" cy="1.87" rx="1.87" ry="1.87" transform="translate(1228.33 116.7)" fill="#fff"/>
        <ellipse id="Ellipse_29-2" data-name="Ellipse 29" cx="3.74" cy="3.74" rx="3.74" ry="3.74" transform="translate(1297.9 242.37)" fill="#fff"/>
        <ellipse id="Ellipse_30-2" data-name="Ellipse 30" cx="3.74" cy="3.74" rx="3.74" ry="3.74" transform="translate(910.4 335.13)" fill="#fff"/>
        <ellipse id="Ellipse_31-2" data-name="Ellipse 31" cx="1.5" cy="1.5" rx="1.5" ry="1.5" transform="translate(1374.2 368.05)" fill="#fff"/>
        <ellipse id="Ellipse_32-2" data-name="Ellipse 32" cx="2.99" cy="2.99" rx="2.99" ry="2.99" transform="translate(977.73 627.63)" fill="#fff"/>
        <ellipse id="Ellipse_33-2" data-name="Ellipse 33" cx="1.87" cy="1.87" rx="1.87" ry="1.87" transform="translate(1074.97 364.31)" fill="#fff"/>
        <ellipse id="Ellipse_34-2" data-name="Ellipse 34" cx="2.24" cy="2.24" rx="2.24" ry="2.24" transform="translate(1324.09 551.33)" fill="#fff"/>
        <ellipse id="Ellipse_35-2" data-name="Ellipse 35" cx="5.24" cy="5.24" rx="5.24" ry="5.24" transform="translate(965 949.29)" fill="#fff"/>
        <ellipse id="Ellipse_36-2" data-name="Ellipse 36" cx="5.24" cy="5.24" rx="5.24" ry="5.24" transform="translate(1173.72 756.29)" fill="#fff"/>
        <ellipse id="Ellipse_37-2" data-name="Ellipse 37" cx="3.74" cy="3.74" rx="3.74" ry="3.74" transform="translate(836.34 1241.05)" fill="#fff"/>
        <ellipse id="Ellipse_38-2" data-name="Ellipse 38" cx="2.99" cy="2.99" rx="2.99" ry="2.99" transform="translate(1128.84 1175.22)" fill="#fff"/>
        <ellipse id="Ellipse_39-2" data-name="Ellipse 39" cx="1.87" cy="1.87" rx="1.87" ry="1.87" transform="translate(865.52 1080.21)" fill="#fff"/>
        <ellipse id="Ellipse_40-2" data-name="Ellipse 40" cx="2.24" cy="2.24" rx="2.24" ry="2.24" transform="translate(1052.54 830.36)" fill="#fff"/>
        <ellipse id="Ellipse_41-2" data-name="Ellipse 41" cx="3.74" cy="3.74" rx="3.74" ry="3.74" transform="translate(867.01 66.58)" fill="#fff"/>
        <ellipse id="Ellipse_42-2" data-name="Ellipse 42" cx="2.99" cy="2.99" rx="2.99" ry="2.99" transform="translate(1159.51 0.75)" fill="#fff"/>
        <ellipse id="Ellipse_43-2" data-name="Ellipse 43" cx="5.24" cy="5.24" rx="5.24" ry="5.24" transform="translate(51.61 94.25)" fill="#fff"/>
        <ellipse id="Ellipse_44-2" data-name="Ellipse 44" cx="3.74" cy="3.74" rx="3.74" ry="3.74" transform="translate(484.75)" fill="#fff"/>
        <ellipse id="Ellipse_45-2" data-name="Ellipse 45" cx="1.5" cy="1.5" rx="1.5" ry="1.5" transform="translate(363.56 76.3)" fill="#fff"/>
        <ellipse id="Ellipse_46-2" data-name="Ellipse 46" cx="2.24" cy="2.24" rx="2.24" ry="2.24" transform="translate(178.79 26.19)" fill="#fff"/>
        <ellipse id="Ellipse_47-2" data-name="Ellipse 47" cx="6.36" cy="6.36" rx="6.36" ry="6.36" transform="translate(1459.48 81.54)" fill="#fff"/>
        <ellipse id="Ellipse_48-2" data-name="Ellipse 48" cx="3.74" cy="3.74" rx="3.74" ry="3.74" transform="translate(1643.51 238.63)" fill="#fff"/>
        <ellipse id="Ellipse_49-2" data-name="Ellipse 49" cx="1.87" cy="1.87" rx="1.87" ry="1.87" transform="translate(1672.68 77.8)" fill="#fff"/>
        <ellipse id="Ellipse_50-2" data-name="Ellipse 50" cx="5.24" cy="5.24" rx="5.24" ry="5.24" transform="translate(374.78 1383.92)" fill="#fff"/>
        <ellipse id="Ellipse_51-2" data-name="Ellipse 51" cx="5.24" cy="5.24" rx="5.24" ry="5.24" transform="translate(583.49 1190.92)" fill="#fff"/>
        <ellipse id="Ellipse_52-2" data-name="Ellipse 52" cx="1.87" cy="1.87" rx="1.87" ry="1.87" transform="translate(27.68 1361.48)" fill="#fff"/>
        <ellipse id="Ellipse_53-2" data-name="Ellipse 53" cx="3.74" cy="3.74" rx="3.74" ry="3.74" transform="translate(153.36 1288.17)" fill="#fff"/>
        <ellipse id="Ellipse_54-2" data-name="Ellipse 54" cx="1.5" cy="1.5" rx="1.5" ry="1.5" transform="translate(279.03 1216.35)" fill="#fff"/>
        <ellipse id="Ellipse_55-2" data-name="Ellipse 55" cx="2.24" cy="2.24" rx="2.24" ry="2.24" transform="translate(462.31 1264.99)" fill="#fff"/>
        <ellipse id="Ellipse_56-2" data-name="Ellipse 56" cx="5.24" cy="5.24" rx="5.24" ry="5.24" transform="translate(931.34 1347.27)" fill="#fff"/>
        <ellipse id="Ellipse_57-2" data-name="Ellipse 57" cx="3.74" cy="3.74" rx="3.74" ry="3.74" transform="translate(501.21 1444.52)" fill="#fff"/>
        <ellipse id="Ellipse_58-2" data-name="Ellipse 58" cx="1.5" cy="1.5" rx="1.5" ry="1.5" transform="translate(626.88 1372.7)" fill="#fff"/>
        <ellipse id="Ellipse_59-2" data-name="Ellipse 59" cx="2.24" cy="2.24" rx="2.24" ry="2.24" transform="translate(810.16 1421.33)" fill="#fff"/>
        <ellipse id="Ellipse_60-2" data-name="Ellipse 60" cx="5.24" cy="5.24" rx="5.24" ry="5.24" transform="translate(1368.84 2117.67)" fill="#fff"/>
        <ellipse id="Ellipse_61-2" data-name="Ellipse 61" cx="1.87" cy="1.87" rx="1.87" ry="1.87" transform="translate(813.03 1953.85)" fill="#fff"/>
        <g id="Gruppe_84" data-name="Gruppe 84">
          <ellipse id="Ellipse_62-2" data-name="Ellipse 62" cx="3.74" cy="3.74" rx="3.74" ry="3.74" transform="translate(1031.47 1635.92)" fill="#fff"/>
          <ellipse id="Ellipse_63-2" data-name="Ellipse 63" cx="2.99" cy="2.99" rx="2.99" ry="2.99" transform="translate(1323.96 1703.25)" fill="#fff"/>
          <ellipse id="Ellipse_64-2" data-name="Ellipse 64" cx="1.87" cy="1.87" rx="1.87" ry="1.87" transform="translate(1060.64 1800.49)" fill="#fff"/>
          <ellipse id="Ellipse_65-2" data-name="Ellipse 65" cx="3.74" cy="3.74" rx="3.74" ry="3.74" transform="translate(175.68 2096.73)" fill="#fff"/>
          <ellipse id="Ellipse_66-2" data-name="Ellipse 66" cx="6.36" cy="6.36" rx="6.36" ry="6.36" transform="translate(1597.75 2094.48)" fill="#fff"/>
          <ellipse id="Ellipse_67-2" data-name="Ellipse 67" cx="1.87" cy="1.87" rx="1.87" ry="1.87" transform="translate(1440.66 2060.07)" fill="#fff"/>
          <ellipse id="Ellipse_68-2" data-name="Ellipse 68" cx="5.24" cy="5.24" rx="5.24" ry="5.24" transform="translate(552.7 1971.8)" fill="#fff"/>
          <ellipse id="Ellipse_69-2" data-name="Ellipse 69" cx="6.36" cy="6.36" rx="6.36" ry="6.36" transform="translate(687.35 1659.11)" fill="#fff"/>
          <ellipse id="Ellipse_70-2" data-name="Ellipse 70" cx="1.87" cy="1.87" rx="1.87" ry="1.87" transform="translate(530.26 1624.7)" fill="#fff"/>
          <ellipse id="Ellipse_71-2" data-name="Ellipse 71" cx="3.74" cy="3.74" rx="3.74" ry="3.74" transform="translate(456.95 1750.37)" fill="#fff"/>
          <ellipse id="Ellipse_72-2" data-name="Ellipse 72" cx="3.74" cy="3.74" rx="3.74" ry="3.74" transform="translate(844.45 1843.13)" fill="#fff"/>
          <ellipse id="Ellipse_73-2" data-name="Ellipse 73" cx="1.5" cy="1.5" rx="1.5" ry="1.5" transform="translate(385.13 1876.05)" fill="#fff"/>
          <ellipse id="Ellipse_74-2" data-name="Ellipse 74" cx="1.87" cy="1.87" rx="1.87" ry="1.87" transform="translate(683.61 1872.31)" fill="#fff"/>
          <ellipse id="Ellipse_75-2" data-name="Ellipse 75" cx="2.24" cy="2.24" rx="2.24" ry="2.24" transform="translate(433.76 2059.33)" fill="#fff"/>
          <ellipse id="Ellipse_76-2" data-name="Ellipse 76" cx="3.74" cy="3.74" rx="3.74" ry="3.74" transform="translate(887.84 1574.58)" fill="#fff"/>
        </g>
        <ellipse id="Ellipse_77-2" data-name="Ellipse 77" cx="2.99" cy="2.99" rx="2.99" ry="2.99" transform="translate(596.84 1508.75)" fill="#fff"/>
        <ellipse id="Ellipse_78-2" data-name="Ellipse 78" cx="5.24" cy="5.24" rx="5.24" ry="5.24" transform="translate(1700.24 1602.25)" fill="#fff"/>
        <ellipse id="Ellipse_79-2" data-name="Ellipse 79" cx="3.74" cy="3.74" rx="3.74" ry="3.74" transform="translate(1270.1 1508)" fill="#fff"/>
        <ellipse id="Ellipse_80-2" data-name="Ellipse 80" cx="1.5" cy="1.5" rx="1.5" ry="1.5" transform="translate(1395.77 1584.3)" fill="#fff"/>
        <ellipse id="Ellipse_81-2" data-name="Ellipse 81" cx="2.24" cy="2.24" rx="2.24" ry="2.24" transform="translate(1579.06 1534.19)" fill="#fff"/>
        <ellipse id="Ellipse_82-2" data-name="Ellipse 82" cx="6.36" cy="6.36" rx="6.36" ry="6.36" transform="translate(290.13 1589.54)" fill="#fff"/>
        <ellipse id="Ellipse_83-2" data-name="Ellipse 83" cx="3.74" cy="3.74" rx="3.74" ry="3.74" transform="translate(111.34 1746.63)" fill="#fff"/>
        <ellipse id="Ellipse_84-2" data-name="Ellipse 84" cx="1.87" cy="1.87" rx="1.87" ry="1.87" transform="translate(85.91 1585.8)" fill="#fff"/>
        <g id="Gruppe_85" data-name="Gruppe 85" transform="translate(694.795 -995.981) rotate(60)">
          <ellipse id="Ellipse_62-3" data-name="Ellipse 62" cx="3.74" cy="3.74" rx="3.74" ry="3.74" transform="translate(1031.47 1635.92)" fill="#fff"/>
          <ellipse id="Ellipse_63-3" data-name="Ellipse 63" cx="2.99" cy="2.99" rx="2.99" ry="2.99" transform="translate(1323.96 1703.25)" fill="#fff"/>
          <ellipse id="Ellipse_64-3" data-name="Ellipse 64" cx="1.87" cy="1.87" rx="1.87" ry="1.87" transform="translate(1060.64 1800.49)" fill="#fff"/>
          <ellipse id="Ellipse_65-3" data-name="Ellipse 65" cx="3.74" cy="3.74" rx="3.74" ry="3.74" transform="translate(175.68 2096.73)" fill="#fff"/>
          <ellipse id="Ellipse_66-3" data-name="Ellipse 66" cx="6.36" cy="6.36" rx="6.36" ry="6.36" transform="translate(1597.75 2094.48)" fill="#fff"/>
          <ellipse id="Ellipse_67-3" data-name="Ellipse 67" cx="1.87" cy="1.87" rx="1.87" ry="1.87" transform="translate(1440.66 2060.07)" fill="#fff"/>
          <ellipse id="Ellipse_68-3" data-name="Ellipse 68" cx="5.24" cy="5.24" rx="5.24" ry="5.24" transform="translate(552.7 1971.8)" fill="#fff"/>
          <ellipse id="Ellipse_69-3" data-name="Ellipse 69" cx="6.36" cy="6.36" rx="6.36" ry="6.36" transform="translate(687.35 1659.11)" fill="#fff"/>
          <ellipse id="Ellipse_70-3" data-name="Ellipse 70" cx="1.87" cy="1.87" rx="1.87" ry="1.87" transform="translate(530.26 1624.7)" fill="#fff"/>
          <ellipse id="Ellipse_71-3" data-name="Ellipse 71" cx="3.74" cy="3.74" rx="3.74" ry="3.74" transform="translate(456.95 1750.37)" fill="#fff"/>
          <ellipse id="Ellipse_72-3" data-name="Ellipse 72" cx="3.74" cy="3.74" rx="3.74" ry="3.74" transform="translate(844.45 1843.13)" fill="#fff"/>
          <ellipse id="Ellipse_73-3" data-name="Ellipse 73" cx="1.5" cy="1.5" rx="1.5" ry="1.5" transform="translate(385.13 1876.05)" fill="#fff"/>
          <ellipse id="Ellipse_74-3" data-name="Ellipse 74" cx="1.87" cy="1.87" rx="1.87" ry="1.87" transform="translate(683.61 1872.31)" fill="#fff"/>
          <ellipse id="Ellipse_75-3" data-name="Ellipse 75" cx="2.24" cy="2.24" rx="2.24" ry="2.24" transform="translate(433.76 2059.33)" fill="#fff"/>
          <ellipse id="Ellipse_76-3" data-name="Ellipse 76" cx="3.74" cy="3.74" rx="3.74" ry="3.74" transform="translate(887.84 1574.58)" fill="#fff"/>
        </g>
        <g id="Gruppe_86" data-name="Gruppe 86" transform="matrix(0.788, 0.616, -0.616, 0.788, 766.687, -1512.583)">
          <ellipse id="Ellipse_62-4" data-name="Ellipse 62" cx="3.74" cy="3.74" rx="3.74" ry="3.74" transform="translate(1031.47 1635.92)" fill="#fff"/>
          <ellipse id="Ellipse_63-4" data-name="Ellipse 63" cx="2.99" cy="2.99" rx="2.99" ry="2.99" transform="translate(1323.96 1703.25)" fill="#fff"/>
          <ellipse id="Ellipse_64-4" data-name="Ellipse 64" cx="1.87" cy="1.87" rx="1.87" ry="1.87" transform="translate(1060.64 1800.49)" fill="#fff"/>
          <ellipse id="Ellipse_65-4" data-name="Ellipse 65" cx="3.74" cy="3.74" rx="3.74" ry="3.74" transform="translate(175.68 2096.73)" fill="#fff"/>
          <ellipse id="Ellipse_66-4" data-name="Ellipse 66" cx="6.36" cy="6.36" rx="6.36" ry="6.36" transform="translate(1597.75 2094.48)" fill="#fff"/>
          <ellipse id="Ellipse_67-4" data-name="Ellipse 67" cx="1.87" cy="1.87" rx="1.87" ry="1.87" transform="translate(1440.66 2060.07)" fill="#fff"/>
          <ellipse id="Ellipse_68-4" data-name="Ellipse 68" cx="5.24" cy="5.24" rx="5.24" ry="5.24" transform="translate(552.7 1971.8)" fill="#fff"/>
          <ellipse id="Ellipse_69-4" data-name="Ellipse 69" cx="6.36" cy="6.36" rx="6.36" ry="6.36" transform="translate(687.35 1659.11)" fill="#fff"/>
          <ellipse id="Ellipse_70-4" data-name="Ellipse 70" cx="1.87" cy="1.87" rx="1.87" ry="1.87" transform="translate(530.26 1624.7)" fill="#fff"/>
          <ellipse id="Ellipse_71-4" data-name="Ellipse 71" cx="3.74" cy="3.74" rx="3.74" ry="3.74" transform="translate(456.95 1750.37)" fill="#fff"/>
          <ellipse id="Ellipse_72-4" data-name="Ellipse 72" cx="3.74" cy="3.74" rx="3.74" ry="3.74" transform="translate(844.45 1843.13)" fill="#fff"/>
          <ellipse id="Ellipse_73-4" data-name="Ellipse 73" cx="1.5" cy="1.5" rx="1.5" ry="1.5" transform="translate(385.13 1876.05)" fill="#fff"/>
          <ellipse id="Ellipse_74-4" data-name="Ellipse 74" cx="1.87" cy="1.87" rx="1.87" ry="1.87" transform="translate(683.61 1872.31)" fill="#fff"/>
          <ellipse id="Ellipse_75-4" data-name="Ellipse 75" cx="2.24" cy="2.24" rx="2.24" ry="2.24" transform="translate(433.76 2059.33)" fill="#fff"/>
          <ellipse id="Ellipse_76-4" data-name="Ellipse 76" cx="3.74" cy="3.74" rx="3.74" ry="3.74" transform="translate(887.84 1574.58)" fill="#fff"/>
        </g>
        <g id="Gruppe_87" data-name="Gruppe 87" transform="translate(1315.404 420.763) rotate(120)">
          <circle id="Ellipse_62-5" data-name="Ellipse 62" cx="3.74" cy="3.74" r="3.74" transform="translate(855.79 463.8)" fill="#fff"/>
          <circle id="Ellipse_63-5" data-name="Ellipse 63" cx="2.99" cy="2.99" r="2.99" transform="translate(1148.281 397.97)" fill="#fff"/>
          <circle id="Ellipse_64-5" data-name="Ellipse 64" cx="1.87" cy="1.87" r="1.87" transform="translate(884.96 302.97)" fill="#fff"/>
          <circle id="Ellipse_65-5" data-name="Ellipse 65" cx="3.74" cy="3.74" r="3.74" transform="translate(0 2.99)" fill="#fff"/>
          <circle id="Ellipse_66-5" data-name="Ellipse 66" cx="6.36" cy="6.36" r="6.36" transform="translate(1422.071 0)" fill="#fff"/>
          <circle id="Ellipse_67-5" data-name="Ellipse 67" cx="1.87" cy="1.87" r="1.87" transform="translate(1264.98 43.39)" fill="#fff"/>
          <ellipse id="Ellipse_68-5" data-name="Ellipse 68" cx="5.24" cy="5.24" rx="5.24" ry="5.24" transform="translate(377.02 124.92)" fill="#fff"/>
          <circle id="Ellipse_69-5" data-name="Ellipse 69" cx="6.36" cy="6.36" r="6.36" transform="translate(511.67 435.37)" fill="#fff"/>
          <circle id="Ellipse_70-5" data-name="Ellipse 70" cx="1.87" cy="1.87" r="1.87" transform="translate(354.58 478.76)" fill="#fff"/>
          <circle id="Ellipse_71-5" data-name="Ellipse 71" cx="3.74" cy="3.74" r="3.74" transform="translate(281.27 349.35)" fill="#fff"/>
          <circle id="Ellipse_72-5" data-name="Ellipse 72" cx="3.74" cy="3.74" r="3.74" transform="translate(668.77 256.59)" fill="#fff"/>
          <circle id="Ellipse_73-5" data-name="Ellipse 73" cx="1.5" cy="1.5" r="1.5" transform="translate(209.45 228.15)" fill="#fff"/>
          <circle id="Ellipse_74-5" data-name="Ellipse 74" cx="1.87" cy="1.87" r="1.87" transform="translate(507.93 231.15)" fill="#fff"/>
          <circle id="Ellipse_75-5" data-name="Ellipse 75" cx="2.24" cy="2.24" r="2.24" transform="translate(258.08 43.39)" fill="#fff"/>
          <circle id="Ellipse_76-5" data-name="Ellipse 76" cx="3.74" cy="3.74" r="3.74" transform="translate(712.16 525.14)" fill="#fff"/>
        </g>
      </g>
    </g>
  </g>
</svg>
