<svg xmlns="http://www.w3.org/2000/svg" width="29.25" height="29.25" viewBox="0 0 29.25 29.25">
  <path id="Icon_ionic-ios-appstore" data-name="Icon ionic-ios-appstore" d="M18,3.375A14.625,14.625,0,1,0,32.625,18,14.623,14.623,0,0,0,18,3.375ZM12.452,24.251a1.011,1.011,0,0,1-.879.5.975.975,0,0,1-.513-.141,1.011,1.011,0,0,1-.366-1.385l1-1.659a.569.569,0,0,1,.492-.281h.148a1.433,1.433,0,0,1,1.378.858ZM20.9,20.988,14.365,21H10.02a1.009,1.009,0,0,1-1.012-1.055,1.03,1.03,0,0,1,1.048-.963H13.2l3.734-6.356h0l-1.209-2.06a1.027,1.027,0,0,1,.309-1.385,1.016,1.016,0,0,1,1.427.337l.647,1.1h.007l.647-1.1A1.014,1.014,0,1,1,20.5,10.561l-1.209,2.06-1.174,2-2.552,4.352v.007h3.762a1.6,1.6,0,0,1,1.3.661l.021.042a1.766,1.766,0,0,1,.33.963A.9.9,0,0,1,20.9,20.988ZM25.98,21H24.209V21L25.5,23.2a1.033,1.033,0,0,1-.337,1.406,1.014,1.014,0,0,1-.527.148,1.026,1.026,0,0,1-.879-.5L21.846,21l-1.188-2.025-1.533-2.623a2.5,2.5,0,0,1-.042-2.482,1.913,1.913,0,0,1,.534-.675l3.41,5.773h2.932a1.04,1.04,0,0,1,1.048.963A1.023,1.023,0,0,1,25.98,21Z" transform="translate(-3.375 -3.375)" fill="#fff"/>
</svg>
