<svg xmlns="http://www.w3.org/2000/svg" xmlns:xlink="http://www.w3.org/1999/xlink" width="169" height="169" viewBox="0 0 169 169"><defs><linearGradient id="a" x1="0.845" y1="0.897" x2="0.124" y2="0.089" gradientUnits="objectBoundingBox"><stop offset="0" stop-color="#5836ac"/><stop offset="1" stop-color="#b21cc4"/></linearGradient></defs><path d="M84.5,169A84.522,84.522,0,0,1,51.609,6.641,84.522,84.522,0,0,1,117.391,162.36,83.97,83.97,0,0,1,84.5,169Zm.521-95.561a2.619,2.619,0,0,1,1.854,4.472l-42.491,42.45a3.932,3.932,0,0,0,5.564,5.557l9.354-9.345a185.92,185.92,0,0,0,20.625-1.2,39.2,39.2,0,0,0,21.708-9.259H85.107l24.035-8a65.3,65.3,0,0,0,4.987-7.716H100.842l17.445-8.712c7.007-17.042,8.544-35.016,8.781-38.446-3.343.23-20.885,1.709-37.723,8.452-9.381,3.757-17,8.513-22.64,14.138A39.551,39.551,0,0,0,54.858,90.327c-.452,3.9-.764,8.077-.98,13.139l29.288-29.26A2.607,2.607,0,0,1,85.021,73.439Z" fill="url(#a)"/></svg>