<svg xmlns="http://www.w3.org/2000/svg" xmlns:xlink="http://www.w3.org/1999/xlink" width="169" height="169" viewBox="0 0 169 169"><defs><linearGradient id="a" x1="0.845" y1="0.897" x2="0.124" y2="0.089" gradientUnits="objectBoundingBox"><stop offset="0" stop-color="#5836ac"/><stop offset="1" stop-color="#b21cc4"/></linearGradient></defs><path d="M84.5,169A84.522,84.522,0,0,1,51.609,6.641,84.522,84.522,0,0,1,117.391,162.36,83.97,83.97,0,0,1,84.5,169ZM72.84,118.021a11.169,11.169,0,1,0,22.337,0ZM84.008,39.8a5.592,5.592,0,0,0-5.583,5.587V49.03a28.453,28.453,0,0,0-15.978,9.457,27.075,27.075,0,0,0-6.359,17.632c0,7.381-1.05,13.28-3.21,18.033a27.8,27.8,0,0,1-5.814,8.206c-.23.241-.45.473-.659.7a5.429,5.429,0,0,0-1.5,3.79,5.751,5.751,0,0,0,1.557,3.867,5.5,5.5,0,0,0,4.046,1.72h67.009a5.5,5.5,0,0,0,4.047-1.72,5.739,5.739,0,0,0,1.556-3.867,5.423,5.423,0,0,0-1.5-3.79c-.209-.225-.43-.457-.659-.7a27.8,27.8,0,0,1-5.814-8.206c-2.16-4.753-3.21-10.652-3.21-18.033a27.075,27.075,0,0,0-6.359-17.632A28.455,28.455,0,0,0,89.592,49.03V45.392A5.592,5.592,0,0,0,84.008,39.8Z" fill="url(#a)"/></svg>