<svg xmlns="http://www.w3.org/2000/svg" xmlns:xlink="http://www.w3.org/1999/xlink" width="169" height="169" viewBox="0 0 169 169"><defs><linearGradient id="a" x1="0.845" y1="0.897" x2="0.124" y2="0.089" gradientUnits="objectBoundingBox"><stop offset="0" stop-color="#5836ac"/><stop offset="1" stop-color="#b21cc4"/></linearGradient></defs><path d="M84.5,169A84.522,84.522,0,0,1,51.609,6.641,84.522,84.522,0,0,1,117.391,162.36,83.97,83.97,0,0,1,84.5,169Zm.106-127.734a8.249,8.249,0,0,0-3.18.634L48.334,55.688a8.234,8.234,0,0,0-5.1,7.635,78.115,78.115,0,0,0,12.172,42.721A66.341,66.341,0,0,0,67.664,120.2a51.586,51.586,0,0,0,13.745,8.674,8.3,8.3,0,0,0,6.36,0,51.348,51.348,0,0,0,12.2-7.474,66.753,66.753,0,0,0,12.437-13.3,71.563,71.563,0,0,0,9.667-19.3,82.138,82.138,0,0,0,3.891-25.469,8.24,8.24,0,0,0-5.085-7.635L87.786,41.9A8.249,8.249,0,0,0,84.606,41.266Zm.009,76.92v0L84.6,52.517,114.915,65.15a71.18,71.18,0,0,1-2.7,18.166,62.033,62.033,0,0,1-6.6,15.125,52.018,52.018,0,0,1-20.99,19.743Z" fill="url(#a)"/></svg>