<svg xmlns="http://www.w3.org/2000/svg" xmlns:xlink="http://www.w3.org/1999/xlink" width="168.999" height="169" viewBox="0 0 168.999 169"><defs><linearGradient id="a" x1="0.845" y1="0.897" x2="0.124" y2="0.089" gradientUnits="objectBoundingBox"><stop offset="0" stop-color="#5836ac"/><stop offset="1" stop-color="#b21cc4"/></linearGradient></defs><path d="M84.5,169a85.123,85.123,0,0,1-17.03-1.717,84.036,84.036,0,0,1-30.215-12.714A84.746,84.746,0,0,1,6.64,117.392,84.075,84.075,0,0,1,1.717,101.53a85.326,85.326,0,0,1,0-34.06A84.038,84.038,0,0,1,14.431,37.255,84.745,84.745,0,0,1,51.608,6.64,84.074,84.074,0,0,1,67.47,1.717a85.325,85.325,0,0,1,34.059,0,84.037,84.037,0,0,1,30.215,12.714,84.745,84.745,0,0,1,30.615,37.177,84.075,84.075,0,0,1,4.924,15.862,85.326,85.326,0,0,1,0,34.06,84.037,84.037,0,0,1-12.714,30.215,84.746,84.746,0,0,1-37.177,30.615,84.076,84.076,0,0,1-15.862,4.924A85.126,85.126,0,0,1,84.5,169ZM59.024,39.3a4,4,0,0,0-4,4v82.4a4,4,0,0,0,4,4h50.953a4,4,0,0,0,4-4V43.3a4,4,0,0,0-4-4ZM84.5,121.838a5.9,5.9,0,1,1,5.9-5.9A5.9,5.9,0,0,1,84.5,121.838Z" fill="url(#a)"/></svg>