<svg xmlns="http://www.w3.org/2000/svg" xmlns:xlink="http://www.w3.org/1999/xlink" width="169" height="169" viewBox="0 0 169 169"><defs><linearGradient id="a" x1="0.845" y1="0.897" x2="0.124" y2="0.089" gradientUnits="objectBoundingBox"><stop offset="0" stop-color="#5836ac"/><stop offset="1" stop-color="#b21cc4"/></linearGradient></defs><path d="M84.5,169A84.522,84.522,0,0,1,51.609,6.641,84.522,84.522,0,0,1,117.391,162.36,83.97,83.97,0,0,1,84.5,169Zm.483-130.285c-6.122,0-14.009,6.224-20.584,16.243A71.631,71.631,0,0,0,56.481,71.29a57.748,57.748,0,0,0-3.167,18.275,54.022,54.022,0,0,0,2.276,16.241,33.223,33.223,0,0,0,6.432,11.855c5.516,6.366,13.455,9.731,22.96,9.731s17.444-3.365,22.961-9.731a33.224,33.224,0,0,0,6.433-11.855,54.016,54.016,0,0,0,2.276-16.241,57.747,57.747,0,0,0-3.167-18.275,71.628,71.628,0,0,0-7.917-16.332C98.994,44.939,91.106,38.715,84.983,38.715Z" fill="url(#a)"/></svg>