<svg xmlns="http://www.w3.org/2000/svg" xmlns:xlink="http://www.w3.org/1999/xlink" width="168.999" height="169" viewBox="0 0 168.999 169"><defs><linearGradient id="a" x1="0.845" y1="0.897" x2="0.124" y2="0.089" gradientUnits="objectBoundingBox"><stop offset="0" stop-color="#5836ac"/><stop offset="1" stop-color="#b21cc4"/></linearGradient></defs><path d="M84.5,169a85.123,85.123,0,0,1-17.03-1.717,84.036,84.036,0,0,1-30.215-12.714A84.746,84.746,0,0,1,6.641,117.392,84.075,84.075,0,0,1,1.718,101.53a85.326,85.326,0,0,1,0-34.06A84.038,84.038,0,0,1,14.432,37.255,84.745,84.745,0,0,1,51.609,6.64,84.074,84.074,0,0,1,67.471,1.717a85.323,85.323,0,0,1,34.059,0,84.037,84.037,0,0,1,30.215,12.714A84.746,84.746,0,0,1,162.36,51.609a84.076,84.076,0,0,1,4.924,15.862,85.325,85.325,0,0,1,0,34.06,84.038,84.038,0,0,1-12.715,30.215,84.747,84.747,0,0,1-37.178,30.615,84.076,84.076,0,0,1-15.861,4.924A85.123,85.123,0,0,1,84.5,169ZM64.22,87.745a15,15,0,0,0-6.67,1.508,15.154,15.154,0,0,0-5.032,4.023,18.312,18.312,0,0,0-3.178,5.788,21.124,21.124,0,0,0-1.107,6.8,9.2,9.2,0,0,1-1.527,5.278,10.469,10.469,0,0,1-4.457,3.563.767.767,0,0,0-.323,1.105c1.426,2.1,4.188,3.807,7.986,4.931a37.4,37.4,0,0,0,10.173,1.415,23.434,23.434,0,0,0,4.153-.324c6.77-1.217,15.264-4.751,17.283-14.673a15.933,15.933,0,0,0-.116-7.136,14.835,14.835,0,0,0-2.932-5.761,17.59,17.59,0,0,0-6.336-4.8A19.293,19.293,0,0,0,64.22,87.745ZM81.027,73.34a4.514,4.514,0,0,0-2.935,1.105L67.879,82.792a1.118,1.118,0,0,0,.59,1.962,19.919,19.919,0,0,1,11.555,5.028A15.418,15.418,0,0,1,85.1,101.256a1.129,1.129,0,0,0,.381.857A1.08,1.08,0,0,0,87.01,102L95.6,92.052a4.5,4.5,0,0,0,1.144-2.763V89.06a5.856,5.856,0,0,1,1.524-3.887l27.592-31.326a5.656,5.656,0,0,0,1.265-4.445,7.6,7.6,0,0,0-2.294-4.131,7.138,7.138,0,0,0-4.973-2.362,5.733,5.733,0,0,0-3.582,1.334L84.819,71.93a5.633,5.633,0,0,1-3.754,1.41h-.038Z" transform="translate(-0.001)" fill="url(#a)"/></svg>