<svg id="Ebene_1" data-name="Ebene 1" xmlns="http://www.w3.org/2000/svg" viewBox="0 0 2000 2000"><defs><style>.cls-1{fill:#fff;}</style></defs><path class="cls-1" d="M1541.26,910.48q-148,147.89-295.81,295.83c-49,49-97.5,98.5-147.28,146.67-44,42.56-108.85,41.59-152.33-1.76Q724.53,1130.65,504,909.43c-37.84-37.94-43.43-95.71-14.44-137.81,30.23-43.91,85.17-60.14,134.06-37.15,15.64,7.37,29.52,19.9,42,32.28,80,79.2,159.43,159,239.06,238.62,2.66,2.66,5.62,5,11.2,9.93V912.7q0-370.53.21-741.07c0-20.71-1.28-42,2.93-62.08C930.42,55,981.1,21,1037.06,27.65c52.94,6.27,93.46,51.64,93.51,105.66q.24,364.79.13,729.53v152.69c6.53-6.46,10.87-10.69,15.16-15Q1267.65,879,1389.49,757.41c29.85-29.75,65.88-40.44,106.42-29.14,41.49,11.58,67.88,39.75,76.63,82.11C1580.52,849,1569.2,882.54,1541.26,910.48Z"/><path class="cls-1" d="M1813.67,1862.23c-.08,62-43.53,107.2-105.18,110.44-4.67.25-9.37.35-14,.35q-330.42.07-660.84.16-366.51,0-733-.08c-66.16,0-113.93-45-114.11-109.41q-.65-215.57.1-431.15c.13-42.61,19.4-75.5,57.19-95.53,38.22-20.29,76.59-17.74,112.14,6.76,31.18,21.48,46,52.33,46,90.4q-.15,153.11,0,306.2v16.89H1597.8v-15.52c0-103.77-.18-207.52.08-311.29.12-48,32.53-89.31,79.15-102.27a107.2,107.2,0,0,1,119.77,46.18,109.63,109.63,0,0,1,16.84,59.25Q1813.79,1647.92,1813.67,1862.23Z"/></svg>