<?xml version="1.0" encoding="utf-8"?>
<!-- Generator: Adobe Illustrator 25.2.0, SVG Export Plug-In . SVG Version: 6.00 Build 0)  -->
<svg version="1.1" id="Ebene_1" focusable="false" xmlns="http://www.w3.org/2000/svg" xmlns:xlink="http://www.w3.org/1999/xlink"
	 x="0px" y="0px" viewBox="0 0 512 512" style="enable-background:new 0 0 512 512;" xml:space="preserve">
<style type="text/css">
	.st0{fill:#FFFFFF;}
</style>
<path class="st0" d="M512,0C460.2,3.6,96.4,38.2,71,287.6c-3.1,26.7-4.8,53.4-6,80.2l178.9-178.7c6.2-6.2,16.4-6.2,22.7,0
	s6.2,16.4,0,22.6L7,471c-9.4,9.4-9.4,24.6,0,33.9c9.4,9.4,24.6,9.4,34,0l57.1-57.1c42.1-0.1,84.2-2.5,126-7.4
	c53.5-5.4,97-26.5,132.6-56.5H255.7l146.8-48.9c11.2-14.9,21.4-30.7,30.5-47.1h-81.1l106.5-53.2C500.3,132.9,510.2,26.3,512,0z"/>
</svg>
