<svg xmlns="http://www.w3.org/2000/svg" xmlns:xlink="http://www.w3.org/1999/xlink" width="180" height="180" viewBox="0 0 180 180">
  <defs>
    <clipPath id="clip-path">
      <rect id="Rechteck_87" data-name="Rechteck 87" width="180" height="180" transform="translate(919 6634)" fill="#fff" stroke="#707070" stroke-width="1"/>
    </clipPath>
    <linearGradient id="linear-gradient" x1="0.824" y1="0.954" x2="0.071" y2="0.142" gradientUnits="objectBoundingBox">
      <stop offset="0" stop-color="#5836ac"/>
      <stop offset="1" stop-color="#b21cc4"/>
    </linearGradient>
  </defs>
  <g id="Gruppe_maskieren_17" data-name="Gruppe maskieren 17" transform="translate(-919 -6634)" clip-path="url(#clip-path)">
    <path id="Icon_awesome-theater-masks" data-name="Icon awesome-theater-masks" d="M54.247,64.288c-9.409,2.74-15.721,10.8-15.087,19.432a31.145,31.145,0,0,1,13.086-8.108ZM25.126,77.36,16.8,30.286a1.3,1.3,0,0,1,.063-.695A102.392,102.392,0,0,1,66.433,16.739c.422,0,.847.045,1.272.05A25.185,25.185,0,0,1,81.234,9.97a127.523,127.523,0,0,1,14.995-1.4,16.851,16.851,0,0,0-10.954-7.08A118.989,118.989,0,0,0,8.707,14.963,17.328,17.328,0,0,0,.276,33.194L8.6,80.269c3.732,21.115,35.751,37.259,53.615,37.259a24.139,24.139,0,0,0,2.625-.21A70.412,70.412,0,0,1,54.478,99.6c-12.485-3.4-27.813-13.537-29.352-22.235ZM50.707,41.313a10.358,10.358,0,0,0-1.067-2.99,16.519,16.519,0,0,1-9.262,4.8,16.533,16.533,0,0,1-10.353-1.356,10.31,10.31,0,0,0,.024,3.173,10.488,10.488,0,0,0,20.659-3.632ZM159.127,31.7A118.874,118.874,0,0,0,82.558,18.239,17.361,17.361,0,0,0,68.387,32.494L60.066,79.568c-4.036,22.828,24.986,51.47,41.515,54.375s53.62-14.106,57.656-36.934l8.321-47.074A17.324,17.324,0,0,0,159.127,31.7ZM87.473,57.089a10.49,10.49,0,0,1,20.662,3.635,10.358,10.358,0,0,1-1.067,2.99,17.415,17.415,0,0,0-19.615-3.448,10.244,10.244,0,0,1,.021-3.176Zm18.48,52.123A27.949,27.949,0,0,1,82.6,79.605c5.4,6.7,14.74,12.108,26.09,14.1s21.981.1,29.352-4.353a28.008,28.008,0,0,1-32.093,19.857Zm34.17-39.687A17.421,17.421,0,0,0,120.5,66.076a10.311,10.311,0,0,1,.024-3.173,10.489,10.489,0,0,1,20.662,3.632,10.3,10.3,0,0,1-1.067,2.99Z" transform="translate(925 6657)" fill="url(#linear-gradient)"/>
  </g>
</svg>
