<svg xmlns="http://www.w3.org/2000/svg" width="23.849" height="23.844" viewBox="0 0 23.849 23.844">
  <path id="Icon_awesome-instagram" data-name="Icon awesome-instagram" d="M11.922,8.046a6.113,6.113,0,1,0,6.113,6.113A6.1,6.1,0,0,0,11.922,8.046Zm0,10.088A3.974,3.974,0,1,1,15.9,14.16a3.982,3.982,0,0,1-3.974,3.974ZM19.711,7.8A1.426,1.426,0,1,1,18.286,6.37,1.423,1.423,0,0,1,19.711,7.8ZM23.76,9.244a7.056,7.056,0,0,0-1.926-5,7.1,7.1,0,0,0-5-1.926C14.87,2.21,8.969,2.21,7,2.321A7.093,7.093,0,0,0,2,4.242a7.08,7.08,0,0,0-1.926,5c-.112,1.969-.112,7.869,0,9.838a7.056,7.056,0,0,0,1.926,5A7.112,7.112,0,0,0,7,26c1.969.112,7.869.112,9.838,0a7.056,7.056,0,0,0,5-1.926,7.1,7.1,0,0,0,1.926-5c.112-1.969.112-7.864,0-9.832ZM21.217,21.188a4.024,4.024,0,0,1-2.267,2.267c-1.57.623-5.294.479-7.028.479s-5.464.138-7.028-.479a4.024,4.024,0,0,1-2.267-2.267c-.623-1.57-.479-5.294-.479-7.028S2.01,8.7,2.627,7.131A4.024,4.024,0,0,1,4.894,4.865c1.57-.623,5.294-.479,7.028-.479s5.464-.138,7.028.479a4.024,4.024,0,0,1,2.267,2.267c.623,1.57.479,5.294.479,7.028S21.84,19.624,21.217,21.188Z" transform="translate(0.005 -2.238)" fill="#fff"/>
</svg>
