<svg xmlns="http://www.w3.org/2000/svg" width="23.088" height="23.088" viewBox="0 0 23.088 23.088">
  <path id="Icon_awesome-linkedin" data-name="Icon awesome-linkedin" d="M21.439,2.25H1.644A1.656,1.656,0,0,0,0,3.915V23.673a1.656,1.656,0,0,0,1.644,1.665H21.439a1.661,1.661,0,0,0,1.649-1.665V3.915A1.661,1.661,0,0,0,21.439,2.25ZM6.978,22.04H3.556V11.021H6.983V22.04ZM5.267,9.517A1.984,1.984,0,1,1,7.251,7.532,1.985,1.985,0,0,1,5.267,9.517ZM19.805,22.04H16.383V16.68c0-1.278-.026-2.922-1.778-2.922-1.783,0-2.056,1.391-2.056,2.829V22.04H9.127V11.021H12.41v1.5h.046A3.6,3.6,0,0,1,15.7,10.748c3.463,0,4.107,2.283,4.107,5.251Z" transform="translate(0 -2.25)" fill="#fff"/>
</svg>
