<svg xmlns="http://www.w3.org/2000/svg" width="22.871" height="18.576" viewBox="0 0 22.871 18.576">
  <path id="Icon_awesome-twitter" data-name="Icon awesome-twitter" d="M20.52,8.01c.015.2.015.406.015.61A13.245,13.245,0,0,1,7.2,21.956a13.246,13.246,0,0,1-7.2-2.1,9.7,9.7,0,0,0,1.132.058,9.387,9.387,0,0,0,5.819-2,4.7,4.7,0,0,1-4.383-3.251,5.911,5.911,0,0,0,.885.073,4.958,4.958,0,0,0,1.234-.16,4.688,4.688,0,0,1-3.759-4.6V9.911a4.721,4.721,0,0,0,2.119.595A4.694,4.694,0,0,1,1.6,4.237a13.324,13.324,0,0,0,9.665,4.905,5.291,5.291,0,0,1-.116-1.074,4.692,4.692,0,0,1,8.112-3.207,9.229,9.229,0,0,0,2.975-1.132,4.675,4.675,0,0,1-2.061,2.583,9.4,9.4,0,0,0,2.7-.726A10.076,10.076,0,0,1,20.52,8.01Z" transform="translate(0 -3.381)" fill="#fff"/>
</svg>
